<svg width="47" height="30" viewBox="0 0 47 30" fill="none" xmlns="http://www.w3.org/2000/svg">
<path d="M25.7735 19.9702L26.1581 28.8856C26.1586 28.9231 26.1523 28.9603 26.1396 28.995C26.1268 29.0296 26.1079 29.061 26.084 29.0872C26.06 29.1135 26.0316 29.1339 26.0004 29.1474C25.9692 29.1608 25.9359 29.167 25.9025 29.1655C25.0092 29.1264 24.6342 29.1773 24.648 29.0872C24.954 27.2889 24.7718 21.7992 24.648 19.9784C24.5241 18.1577 24.3676 16.6199 23.8112 15.4039C23.373 14.4484 22.5471 14.0221 21.3334 14.1251C20.8639 14.1637 20.6222 14.183 20.6083 14.183C18.1496 14.2763 15.9247 14.0512 13.4267 13.2706C10.4604 12.0216 9.24252 10.5186 7.80624 8.43074C6.79077 6.95092 5.43315 5.30825 4.68375 4.3715C3.93435 3.43475 1.8689 1.69779 0.102243 0.690862C-0.0438187 0.60722 -0.0333854 0.550923 0.133542 0.52197C4.83534 -0.340189 9.47802 -0.134301 14.0616 1.13963C20.3353 2.88647 23.4339 6.81926 23.3574 12.938C23.3575 13.0873 23.4188 13.2333 23.5295 13.3482C24.2703 14.1106 24.7884 14.9889 25.084 15.9829C25.1292 16.1438 25.1866 16.1486 25.2562 15.9974C25.5796 15.2993 26.0213 14.0061 26.5812 12.1177C27.3775 9.41861 29.0294 7.72968 31.5368 7.05089C33.3591 6.55547 36.3113 6.75171 39.1873 7.05089C42.0425 7.34364 44.1868 6.37692 46.8264 4.73947C46.9724 4.64617 47.0263 4.67995 46.9881 4.8408C46.383 7.3758 44.8668 9.10791 43.4027 10.9287C41.5292 12.938 40.0879 14.0286 37.7822 14.8393C35.0905 15.7883 32.4862 16.4751 29.5337 15.3653C28.6226 15.0242 28.0261 14.8489 27.7444 14.8393C26.9759 14.8135 26.7976 15.0404 26.5812 15.3653C26.0149 16.2151 25.917 16.8401 25.9025 16.8979C25.6028 18.0927 25.7735 19.0253 25.7735 19.9702ZM18.6573 7.50449C16.9567 6.2209 15.1936 5.35231 13.3678 4.89871C13.3352 4.89119 13.3034 4.88816 13.2747 4.88983C13.2459 4.89149 13.2208 4.8978 13.2009 4.90836C13.1661 4.92766 13.147 4.95179 13.1435 4.98074C13.1383 5.00511 13.1505 5.03428 13.1781 5.06331C13.2057 5.09234 13.2469 5.11943 13.2948 5.13999C17.0958 6.79996 20.0362 9.21593 22.1158 12.3879C22.2445 12.5841 22.3349 12.6051 22.3871 12.4506C22.4045 12.396 22.401 12.3364 22.3767 12.2721C21.6916 10.448 20.4518 8.85885 18.6573 7.50449ZM35.1623 10.2164C35.7952 10.1328 35.7935 10.0572 35.1571 9.98962C31.8081 9.6261 29.1286 10.7778 27.1185 13.4447C27.079 13.4967 27.0552 13.5552 27.0505 13.6116C27.0458 13.6681 27.0605 13.7195 27.0924 13.7584C27.1828 13.8742 27.2837 13.842 27.3949 13.6618C27.4541 13.5653 27.5149 13.4913 27.5775 13.4399C29.7476 11.6705 32.2758 10.596 35.1623 10.2164Z" fill="#33CFBD"/>
<path d="M18.6576 7.50426C20.4521 8.85862 21.6918 10.4478 22.3769 12.2719C22.4013 12.3362 22.4048 12.3957 22.3874 12.4504C22.3352 12.6048 22.2448 12.5839 22.1161 12.3877C20.0365 9.21571 17.0961 6.79974 13.295 5.13976C13.2472 5.11921 13.2059 5.09211 13.1784 5.06309C13.1508 5.03406 13.1386 5.00489 13.1437 4.98052C13.1472 4.95157 13.1663 4.92744 13.2011 4.90814C13.221 4.89758 13.2462 4.89127 13.2749 4.8896C13.3037 4.88794 13.3354 4.89097 13.3681 4.89849C15.1938 5.35209 16.957 6.22068 18.6576 7.50426Z" fill="#1FBEAC"/>
<path d="M35.1625 10.2175C32.276 10.5971 29.7477 11.6716 27.5777 13.4409C27.5151 13.4924 27.4542 13.5664 27.3951 13.6629C27.2838 13.8431 27.183 13.8752 27.0925 13.7594C27.0606 13.7206 27.046 13.6692 27.0507 13.6127C27.0554 13.5563 27.0792 13.4978 27.1186 13.4458C29.1287 10.7789 31.8083 9.62718 35.1573 9.9907C35.7937 10.0583 35.7954 10.1339 35.1625 10.2175Z" fill="#1FBEAC"/>
</svg>
